<svg width="24" height="24" viewBox="0 0 24 24" fill="none" xmlns="http://www.w3.org/2000/svg">
<path d="M20 11V17M15 19V22M9 19V22M4 11V17M10 4L8.5 2M14 4L15.5 2M6.5 10H17.5M6.5 9.5C6.5 8.04131 7.07946 6.64236 8.11091 5.61091C9.14236 4.57946 10.5413 4 12 4C13.4587 4 14.8576 4.57946 15.8891 5.61091C16.9205 6.64236 17.5 8.04131 17.5 9.5V16C17.5 17.414 17.5 18.121 17.06 18.56C16.621 19 15.914 19 14.5 19H9.5C8.086 19 7.379 19 6.94 18.56C6.5 18.121 6.5 17.414 6.5 16V9.5Z" stroke="#484848" stroke-width="1.5" stroke-linecap="round" stroke-linejoin="round"/>
</svg>
