<svg width="17" height="17" viewBox="0 0 17 17" fill="none" xmlns="http://www.w3.org/2000/svg">
<path d="M14.3724 13.1208L14.0676 12.6754L13.7042 12.9919C13.3994 13.2732 12.6726 13.449 12.0513 13.449C10.9729 13.449 10.2109 12.7926 10.2109 11.8548C10.2109 11.0577 10.6329 10.5419 11.4652 10.2957L12.6375 9.95579C13.2118 9.77995 13.5401 9.6979 13.6221 9.68617C13.7511 9.66273 13.8214 9.63929 13.8449 9.61584C13.8566 9.56895 13.8683 9.48689 13.8683 9.36967V9.31106L13.8566 8.85389C13.8449 8.43189 13.5401 8.13883 13.1063 8.13883C12.6375 8.13883 12.2037 8.57255 12.2037 9.06489C12.2037 9.25245 12.192 9.38139 12.192 9.41656C12.1568 9.5924 12.0162 9.67445 11.77 9.67445C11.1018 9.67445 10.4806 9.29934 10.4806 8.9125C10.4806 8.56083 10.8439 8.04505 11.2425 7.77544C11.7466 7.44721 12.6023 7.22449 13.4463 7.22449C13.9152 7.22449 14.3255 7.2831 14.6889 7.37688C15.4743 7.5996 15.7908 8.10366 15.7908 9.29934V9.68617V11.6321C15.7908 12.0424 15.8376 12.1596 16.0604 12.1596C16.0721 12.1596 16.0838 12.1479 16.119 12.1479L16.3183 12.0775C16.33 12.0658 16.3652 12.0658 16.4003 12.0658C16.541 12.0658 16.6465 12.2534 16.6465 12.4761C16.6465 12.6168 16.5996 12.7223 16.5175 12.8043C16.1893 13.1677 15.6149 13.4139 15.146 13.4139C14.7826 13.4139 14.5013 13.3084 14.3724 13.1208ZM13.8683 11.046C13.8683 10.917 13.8566 10.7529 13.8566 10.4833C13.669 10.5653 13.5284 10.6005 13.4346 10.6357C13.2587 10.7177 13.1415 10.7412 13.0595 10.7763C12.9188 10.8232 12.8016 10.8819 12.6726 10.9405C12.5671 11.0225 12.4616 11.0929 12.3678 11.1984C12.2155 11.3507 12.1451 11.5383 12.1451 11.7376C12.1451 12.1127 12.4382 12.3471 12.8953 12.3471C13.1884 12.3471 13.5166 12.1713 13.6925 11.9251C13.8097 11.7493 13.8683 11.4562 13.8683 11.046Z" fill="#FFFFF0"/>
<path d="M6.0407 10.9639H3.61418H3.40318L3.32113 11.1397L3.14529 11.7141C3.13357 11.7962 3.12185 11.8548 3.12185 11.9134C3.12185 11.9955 3.14529 12.0892 3.2039 12.1713C3.23907 12.2416 3.29768 12.3002 3.37974 12.3354C3.4149 12.3471 3.49696 12.3706 3.62591 12.4292C3.86035 12.5112 3.97758 12.6519 3.97758 12.8278C3.97758 13.1091 3.71968 13.3084 3.37974 13.3084C3.29768 13.3084 3.21563 13.3084 3.13357 13.2966C2.84051 13.2615 2.47712 13.2615 2.18406 13.2615C1.891 13.2615 1.64483 13.2732 1.42211 13.2966C1.34005 13.3084 1.23455 13.3084 1.1525 13.3084C0.859439 13.3084 0.648438 13.156 0.648438 12.8864C0.648438 12.6871 0.730494 12.5933 0.976662 12.4644C1.24628 12.3237 1.28144 12.3002 1.37522 12.1947C1.469 12.0658 1.56278 11.89 1.7855 11.3859L4.23547 5.87642L4.44647 5.43097C4.63403 5.04413 4.68091 4.96208 4.80986 4.78624C5.03258 4.51663 5.25531 4.42285 5.75937 4.42285C6.35721 4.42285 6.6151 4.63385 6.75576 5.1848L6.84954 5.54819C6.90816 5.79436 7.00193 6.05225 7.10743 6.34531L8.92439 11.1397C9.14712 11.6907 9.2409 11.9837 9.32295 12.0775C9.39329 12.2065 9.54568 12.3354 9.7684 12.4409C10.038 12.5816 10.1201 12.6754 10.1201 12.8629C10.1201 13.2029 9.92079 13.2966 9.29951 13.2966H9.05334L7.91627 13.2615C7.36533 13.2498 6.90815 13.2498 6.54476 13.2966C6.41582 13.3084 6.32204 13.3201 6.21654 13.3201C5.86487 13.3201 5.68903 13.1677 5.68903 12.8512C5.68903 12.6636 5.78281 12.5347 5.97037 12.4526L6.18137 12.3706C6.41582 12.2885 6.53304 12.1479 6.53304 11.972C6.53304 11.9017 6.52132 11.8196 6.49787 11.7376L6.31032 11.128C6.27515 11.046 6.23998 10.9991 6.22826 10.9873C6.21654 10.9756 6.1462 10.9639 6.0407 10.9639ZM3.93069 9.651C3.93069 9.68617 3.97758 9.69789 4.08308 9.69789H5.6187C5.74765 9.69789 5.80626 9.68617 5.80626 9.66273C5.80626 9.651 5.79454 9.60411 5.75937 9.51034L5.02086 7.51754C4.9857 7.41204 4.96225 7.31826 4.92708 7.31826C4.89192 7.31826 4.85675 7.37687 4.80986 7.50582L3.9893 9.49861C3.95413 9.56895 3.93069 9.61584 3.93069 9.651Z" fill="#FFFFF0"/>
</svg>
