<svg width="24" height="24" viewBox="0 0 24 24" fill="none" xmlns="http://www.w3.org/2000/svg">
<path d="M10 20.568C6.571 21.725 3.714 20.568 2 17" stroke="#1A1A1A" stroke-width="1.5" stroke-linecap="round" stroke-linejoin="round"/>
<path d="M10 22V18.758C10 18.16 10.184 17.64 10.48 17.17C10.684 16.848 10.544 16.39 10.177 16.29C7.134 15.452 5 14.107 5 9.645C5 8.485 5.38 7.395 6.048 6.445C6.214 6.209 6.298 6.091 6.318 5.985C6.338 5.877 6.303 5.738 6.233 5.458C5.95 4.322 5.969 3.115 6.393 2.028C6.393 2.028 7.27 1.741 9.267 2.988C9.723 3.273 9.951 3.416 10.152 3.448C10.353 3.48 10.621 3.413 11.157 3.279C11.9234 3.08899 12.7104 2.99527 13.5 3C14.2895 2.99663 15.0765 3.09067 15.843 3.28C16.379 3.414 16.648 3.48 16.849 3.449C17.049 3.417 17.277 3.274 17.733 2.989C19.73 1.742 20.607 2.029 20.607 2.029C21.031 3.116 21.05 4.323 20.767 5.459C20.697 5.739 20.663 5.879 20.683 5.985C20.703 6.091 20.786 6.21 20.952 6.446C21.62 7.396 22 8.486 22 9.646C22 14.108 19.866 15.453 16.823 16.289C16.456 16.39 16.316 16.848 16.52 17.169C16.816 17.639 17 18.159 17 18.758V22" stroke="#1A1A1A" stroke-width="1.5" stroke-linecap="round" stroke-linejoin="round"/>
</svg>
