<svg width="24" height="24" viewBox="0 0 24 24" fill="none" xmlns="http://www.w3.org/2000/svg">
<path d="M2.016 20.305C3.146 21.919 8.058 23.187 10.378 20.165C12.888 21.365 17.028 20.993 20.398 19.113C20.866 18.852 21.31 18.522 21.581 18.059C22.194 17.014 22.209 15.564 21.091 13.425C19.226 8.77 15.873 4.68501 14.519 3.04201C14.241 2.78801 12.467 2.42801 11.386 2.08201C10.908 1.93501 10.019 1.83601 8.955 3.23801C8.45 3.90301 6.159 5.53501 9.066 6.63301C9.516 6.74801 9.848 6.95901 11.902 6.58301C12.17 6.53701 12.838 6.58301 13.309 7.41001L14.292 8.81601C14.3844 8.94625 14.4428 9.09748 14.462 9.256C14.634 10.756 14.628 12.632 15.464 13.582C14.173 12.649 10.8 11.54 8.258 14.695M2 12.94C3.14422 11.9199 4.60306 11.3221 6.13408 11.2458C7.66511 11.1696 9.17612 11.6196 10.416 12.521" stroke="#484848" stroke-width="1.5" stroke-linecap="round" stroke-linejoin="round"/>
</svg>
