<svg width="24" height="24" viewBox="0 0 24 24" fill="none" xmlns="http://www.w3.org/2000/svg">
<path d="M7.02288 14H18.0229M8.52288 9H14.7589C15.2219 9 15.4529 9 15.5109 9.16C15.6969 9.678 13.7549 11.414 13.4569 11.758C12.9679 12.321 12.7239 12.603 12.5949 12.962C12.4669 13.32 12.4669 13.718 12.4669 14.515V18.075C12.4669 19.738 11.5139 21 9.93188 21M5.01588 8C4.93988 7.26 5.06588 5.863 7.00888 6H17.4739C18.1119 6.037 19.1959 6.46 18.9689 8M10.9959 3C11.5959 3.313 12.6699 4.515 12.9889 6" stroke="#484848" stroke-width="1.5" stroke-linecap="round" stroke-linejoin="round"/>
</svg>
